<?xml version="1.0" encoding="UTF-8"?>
<!DOCTYPE svg PUBLIC "-//W3C//DTD SVG 1.1//EN" "http://www.w3.org/Graphics/SVG/1.1/DTD/svg11.dtd">
<!-- Creator: CorelDRAW X7 -->
<svg xmlns="http://www.w3.org/2000/svg" xml:space="preserve" width="306.4mm" height="123.4mm" version="1.1" style="shape-rendering:geometricPrecision; text-rendering:geometricPrecision; image-rendering:optimizeQuality; fill-rule:evenodd; clip-rule:evenodd"
viewBox="0 0 30640 12340"
 xmlns:xlink="http://www.w3.org/1999/xlink">
 <defs>
  <style type="text/css">
   <![CDATA[
    .fil1 {fill:black}
    .fil0 {fill:#61F4FF}
   ]]>
  </style>
 </defs>
 <g id="Capa_x0020_1">
  <metadata id="CorelCorpID_0Corel-Layer"/>
  <path class="fil0" d="M3704 7590c-1176,-712 -2338,-1818 -3408,-2993 1614,-1919 3278,-3143 4825,-3715 1295,-479 2803,-377 4077,173 1635,706 3243,2249 4467,3545 -1327,1375 -2516,2520 -3783,3215l-83 469 -1 2012c-3,578 -462,934 -952,956 -384,18 -788,-170 -1007,-618l1 694c-9,569 -547,925 -1067,907 -496,-17 -975,-383 -986,-917l3 -1637c-417,824 -1593,803 -1974,-220l0 -1314 -112 -557z"/>
  <path class="fil1" d="M3943 7484c-1506,-1051 -2565,-2059 -3302,-2884 1400,-1511 2754,-2642 4078,-3237 1337,-678 2966,-752 4674,71 1133,558 2494,1621 3879,3166 -1233,1300 -2431,2426 -3638,3055 -2751,1009 -2937,1198 -5691,-171z"/>
  <path class="fil1" d="M4545 7641c74,-46 114,-85 131,-110 -479,-120 -719,-181 -719,-181 39,170 74,385 103,660l0 1145c0,508 348,816 761,839 417,22 778,-310 806,-732 9,-136 59,-225 218,-228 97,-1 189,58 189,169l0 2125c51,293 242,503 573,631 437,73 986,-167 986,-660l0 -1606c-3,-124 110,-166 220,-163 108,2 183,40 201,163l0 645c88,397 379,645 796,645 381,0 760,-301 760,-671l0 -2101 79 -628c-412,126 -617,190 -617,190l0 2365c-7,162 -103,309 -267,309 -103,1 -254,-89 -253,-333l0 -525c0,-273 -178,-471 -413,-586 -141,-69 -460,-60 -601,-8 -213,80 -441,337 -441,568l0 1600c17,358 -499,382 -529,4l0 -2123c-28,-264 -195,-457 -491,-575 -180,-45 -343,-41 -490,12 -330,119 -452,346 -465,689 -17,423 -529,338 -536,14l-1 -1543z"/>
  <ellipse class="fil0" cx="6925" cy="4563" rx="2770" ry="2767"/>
  <ellipse class="fil1" cx="6922" cy="4539" rx="2015" ry="2012"/>
  <path class="fil0" d="M6935 3334c659,0 1206,526 1194,1192 -3,162 -50,336 -122,531 -209,565 -584,495 -661,118 -54,-265 91,-904 -358,-911 -506,-9 -280,732 -426,1020 -148,293 -452,249 -646,-166 -95,-205 -175,-438 -175,-592 0,-658 534,-1192 1194,-1192z"/>
  <polygon class="fil0" points="15923,5505 15049,3177 15915,3177 16290,4308 16682,3177 17266,3177 17628,4308 18049,3175 18843,3175 17963,5504 17249,5505 16957,4591 16657,5506 "/>
  <polygon class="fil1" points="16024,5401 15262,3285 15809,3285 16290,4585 16765,3285 17153,3285 17628,4585 18141,3285 18669,3285 17858,5402 17365,5402 16957,4273 16553,5401 "/>
  <rect class="fil0" x="18884" y="3176" width="673" height="2328"/>
  <path class="fil0" d="M20436 4835l421 0 0 669 -421 1 -273 0c-384,2 -444,-290 -435,-597l0 -2329 708 0 0 599 418 0 0 635 -418 0 0 1022z"/>
  <path class="fil1" d="M20325 4943l425 0 0 459 -536 1c-243,0 -375,-155 -383,-476l0 -2240 494 0 0 598 427 0 0 423 -427 0 0 1235z"/>
  <path class="fil0" d="M21389 3180l247 0 1222 -1c180,0 325,156 327,379l0 1950 -670 0 -4 -1661 -875 0 0 1652 -673 0 0 -2319 426 0z"/>
  <path class="fil1" d="M22621 3282l135 0c221,0 325,139 324,342l0 1778 -459 0 0 -1657 -1094 0 0 1658 -460 0 0 -2120 324 0 136 0 1094 -1z"/>
  <path class="fil0" d="M24581 3113c678,0 1227,552 1227,1233 0,681 -549,1233 -1227,1233 -678,0 -1228,-552 -1228,-1233 0,-681 550,-1233 1228,-1233zm-337 1619l0 -36 670 0 0 36c-213,177 -435,203 -670,0zm730 644c313,-118 509,-339 608,-645l-488 0c16,0 -451,554 -1062,0l0 -139 1623 0 0 -258c0,-592 -487,-1088 -1078,-1087 -509,2 -989,397 -1066,873 -27,169 -27,455 39,606 158,360 374,532 613,633 225,96 579,105 811,17z"/>
  <path class="fil1" d="M24974 5376c313,-118 509,-339 608,-645l-488 0c16,0 -451,554 -1062,0l0 -139 1623 0 0 -258c0,-592 -487,-1088 -1078,-1087 -509,2 -989,397 -1066,873 -27,169 -27,455 39,606 158,360 374,532 613,633 225,96 579,105 811,17zm-943 -1385l0 136 1094 1 0 -136c-308,-432 -883,-321 -1094,-1z"/>
  <path class="fil0" d="M28159 4841l-2 246c3,291 -138,427 -421,421l-1802 0 0 -667 1518 0 0 -145 -1095 0c-300,1 -433,-19 -423,-348l0 -330 0 -169 0 -343c3,-292 140,-337 481,-329l1641 0 0 672 -1450 0 0 169 1071 0c378,-3 482,147 481,521l1 302z"/>
  <path class="fil1" d="M27694 5402l-826 0 -825 0 0 -459 1512 1 0 -357 -1130 2c-283,15 -392,-93 -388,-350l0 -110 0 -389 0 -111c-12,-247 96,-346 366,-341l97 0 1444 0 0 452 -1444 0 0 389 1050 0c542,-13 494,153 504,448l-1 367c18,329 -91,468 -359,458z"/>
  <path class="fil0" d="M30524 4841l-2 246c3,291 -138,427 -421,421l-1802 0 0 -667 1519 0 0 -145 -1095 0c-300,1 -433,-19 -424,-348l0 -330 0 -169 0 -343c4,-292 140,-337 481,-329l1641 0 0 672 -1450 0 0 169 1071 0c378,-3 482,147 481,521l1 302z"/>
  <path class="fil1" d="M30059 5402l-826 0 -825 0 0 -459 1513 1 0 -357 -1131 2c-283,15 -392,-93 -388,-350l0 -110 0 -389 0 -111c-11,-247 97,-346 366,-341l97 0 1445 0 0 452 -1445 0 0 389 1051 0c541,-13 493,153 503,448l-1 367c19,329 -91,468 -359,458z"/>
  <path class="fil0" d="M24031 3991l0 136 1094 1 0 -136c-308,-432 -883,-321 -1094,-1zm176 -2l0 36 703 0 0 -36c-60,-100 -206,-165 -345,-168 -125,-2 -240,46 -358,168z"/>
 </g>
</svg>
